<mxfile host="65bd71144e">
    <diagram id="tr8WCDj-hul7nBdrf4UF" name="Страница 1">
        <mxGraphModel dx="394" dy="371" grid="1" gridSize="10" guides="1" tooltips="1" connect="0" arrows="1" fold="1" page="1" pageScale="1" pageWidth="827" pageHeight="1169" math="0" shadow="0">
            <root>
                <mxCell id="0"/>
                <mxCell id="1" parent="0"/>
                <mxCell id="2" style="edgeStyle=orthogonalEdgeStyle;rounded=0;orthogonalLoop=1;jettySize=auto;html=1;" parent="1" source="3" target="4" edge="1">
                    <mxGeometry relative="1" as="geometry"/>
                </mxCell>
                <mxCell id="3" value="Запуск" style="rounded=1;whiteSpace=wrap;html=1;arcSize=50;" parent="1" vertex="1">
                    <mxGeometry x="305" y="20" width="140" height="40" as="geometry"/>
                </mxCell>
                <mxCell id="195" style="edgeStyle=none;html=1;" parent="1" source="4" edge="1">
                    <mxGeometry relative="1" as="geometry">
                        <mxPoint x="375" y="200" as="targetPoint"/>
                    </mxGeometry>
                </mxCell>
                <mxCell id="4" value="int n;" style="rounded=0;whiteSpace=wrap;html=1;" parent="1" vertex="1">
                    <mxGeometry x="315" y="120" width="120" height="50" as="geometry"/>
                </mxCell>
                <mxCell id="5" value="#include &amp;lt;iostream&amp;gt;&lt;br&gt;using namespace std;&lt;br&gt;int main() {&lt;br&gt;setlocale(LC_ALL, &quot;Russian&quot;);" style="strokeWidth=2;html=1;shape=mxgraph.flowchart.annotation_2;align=left;labelPosition=right;pointerEvents=1;" parent="1" vertex="1">
                    <mxGeometry x="455" y="50" width="20" height="60" as="geometry"/>
                </mxCell>
                <mxCell id="6" value="" style="endArrow=none;dashed=1;html=1;entryX=0;entryY=0.5;entryDx=0;entryDy=0;entryPerimeter=0;" parent="1" target="5" edge="1">
                    <mxGeometry width="50" height="50" relative="1" as="geometry">
                        <mxPoint x="375" y="80" as="sourcePoint"/>
                        <mxPoint x="465" y="70" as="targetPoint"/>
                    </mxGeometry>
                </mxCell>
                <mxCell id="7" value="Конец" style="rounded=1;whiteSpace=wrap;html=1;arcSize=50;" parent="1" vertex="1">
                    <mxGeometry x="300" y="790" width="140" height="40" as="geometry"/>
                </mxCell>
                <mxCell id="10" value="return 0;&lt;br&gt;}" style="strokeWidth=2;html=1;shape=mxgraph.flowchart.annotation_2;align=left;labelPosition=right;pointerEvents=1;" parent="1" vertex="1">
                    <mxGeometry x="465" y="751" width="20" height="60" as="geometry"/>
                </mxCell>
                <mxCell id="11" value="" style="endArrow=none;dashed=1;html=1;entryX=0;entryY=0.5;entryDx=0;entryDy=0;entryPerimeter=0;" parent="1" edge="1">
                    <mxGeometry width="50" height="50" relative="1" as="geometry">
                        <mxPoint x="365" y="781" as="sourcePoint"/>
                        <mxPoint x="465" y="781" as="targetPoint"/>
                    </mxGeometry>
                </mxCell>
                <mxCell id="179" style="edgeStyle=orthogonalEdgeStyle;rounded=0;html=1;entryX=0.5;entryY=0;entryDx=0;entryDy=0;" parent="1" target="7" edge="1">
                    <mxGeometry relative="1" as="geometry">
                        <mxPoint x="370" y="740" as="sourcePoint"/>
                    </mxGeometry>
                </mxCell>
                <mxCell id="236" style="edgeStyle=none;html=1;" parent="1" source="234" edge="1">
                    <mxGeometry relative="1" as="geometry">
                        <mxPoint x="375" y="280" as="targetPoint"/>
                    </mxGeometry>
                </mxCell>
                <mxCell id="234" value="int sum = 0;" style="rounded=0;whiteSpace=wrap;html=1;" parent="1" vertex="1">
                    <mxGeometry x="315" y="200" width="120" height="50" as="geometry"/>
                </mxCell>
                <mxCell id="248" value="" style="edgeStyle=none;html=1;" parent="1" target="247" edge="1">
                    <mxGeometry relative="1" as="geometry">
                        <mxPoint x="375" y="320" as="sourcePoint"/>
                    </mxGeometry>
                </mxCell>
                <mxCell id="254" value="" style="edgeStyle=none;html=1;rounded=0;" edge="1" parent="1" source="247" target="253">
                    <mxGeometry relative="1" as="geometry"/>
                </mxCell>
                <mxCell id="247" value="cin &amp;gt;&amp;gt; n;" style="shape=parallelogram;perimeter=parallelogramPerimeter;whiteSpace=wrap;html=1;fixedSize=1;" parent="1" vertex="1">
                    <mxGeometry x="252.5" y="360" width="245" height="40" as="geometry"/>
                </mxCell>
                <mxCell id="252" value="int sum = 0;" style="rounded=0;whiteSpace=wrap;html=1;" vertex="1" parent="1">
                    <mxGeometry x="315" y="280" width="120" height="50" as="geometry"/>
                </mxCell>
                <mxCell id="256" value="1" style="edgeStyle=orthogonalEdgeStyle;rounded=0;html=1;" edge="1" parent="1" source="253" target="255">
                    <mxGeometry relative="1" as="geometry"/>
                </mxCell>
                <mxCell id="253" value="for (int i = 1; i &lt;= n; i++)" style="shape=hexagon;perimeter=hexagonPerimeter2;whiteSpace=wrap;html=1;fixedSize=1;" vertex="1" parent="1">
                    <mxGeometry x="287.5" y="430" width="175" height="50" as="geometry"/>
                </mxCell>
                <mxCell id="261" value="1" style="edgeStyle=orthogonalEdgeStyle;rounded=0;html=1;" edge="1" parent="1" source="255" target="257">
                    <mxGeometry relative="1" as="geometry">
                        <Array as="points">
                            <mxPoint x="250" y="540"/>
                        </Array>
                    </mxGeometry>
                </mxCell>
                <mxCell id="262" value="0" style="edgeStyle=orthogonalEdgeStyle;rounded=0;html=1;" edge="1" parent="1" source="255" target="258">
                    <mxGeometry relative="1" as="geometry">
                        <Array as="points">
                            <mxPoint x="505" y="540"/>
                        </Array>
                    </mxGeometry>
                </mxCell>
                <mxCell id="255" value="if (i % 3 == 0)" style="rhombus;whiteSpace=wrap;html=1;" vertex="1" parent="1">
                    <mxGeometry x="305" y="510" width="140" height="60" as="geometry"/>
                </mxCell>
                <mxCell id="267" style="edgeStyle=orthogonalEdgeStyle;rounded=0;html=1;" edge="1" parent="1" source="257">
                    <mxGeometry relative="1" as="geometry">
                        <mxPoint x="370" y="670" as="targetPoint"/>
                        <Array as="points">
                            <mxPoint x="250" y="670"/>
                        </Array>
                    </mxGeometry>
                </mxCell>
                <mxCell id="257" value="sum -= i;" style="rounded=0;whiteSpace=wrap;html=1;" vertex="1" parent="1">
                    <mxGeometry x="190" y="585" width="120" height="50" as="geometry"/>
                </mxCell>
                <mxCell id="266" style="edgeStyle=orthogonalEdgeStyle;rounded=0;html=1;" edge="1" parent="1" source="258">
                    <mxGeometry relative="1" as="geometry">
                        <mxPoint x="370" y="670" as="targetPoint"/>
                        <Array as="points">
                            <mxPoint x="505" y="670"/>
                        </Array>
                    </mxGeometry>
                </mxCell>
                <mxCell id="258" value="sum += i;" style="rounded=0;whiteSpace=wrap;html=1;" vertex="1" parent="1">
                    <mxGeometry x="445" y="585" width="120" height="50" as="geometry"/>
                </mxCell>
                <mxCell id="263" value="cout &lt;&lt; &quot;Сумма последовательности: &quot; &lt;&lt; sum &lt;&lt; endl;" style="shape=parallelogram;perimeter=parallelogramPerimeter;whiteSpace=wrap;html=1;fixedSize=1;" vertex="1" parent="1">
                    <mxGeometry x="200" y="710" width="340" height="30" as="geometry"/>
                </mxCell>
                <mxCell id="268" value="" style="endArrow=classic;html=1;" edge="1" parent="1" target="263">
                    <mxGeometry width="50" height="50" relative="1" as="geometry">
                        <mxPoint x="369.37" y="670" as="sourcePoint"/>
                        <mxPoint x="394.37" y="590" as="targetPoint"/>
                    </mxGeometry>
                </mxCell>
            </root>
        </mxGraphModel>
    </diagram>
</mxfile>